<?xml version="1.0" encoding="UTF-8"?>
<svg id="svg-go-e_charger_core-root" xmlns="http://www.w3.org/2000/svg" viewBox="0 0 170.16 170.16">
<g transform="translate(0,-30)">
  <path
    d="M91.72,153.16l1.34,30.06h7.67l1.8-34.46s-1.92,1.47-5.41,2.96-5.41,1.45-5.41,1.45Z"
    class="fill-it" fill="none"
    style="stroke:currentColor;stroke-width:2px;stroke-linejoin:round;" />
  <path
    d="M91.72,153.16l1.34,30.06h7.67l1.8-34.46s-1.92,1.47-5.41,2.96-5.41,1.45-5.41,1.45Z"
    class="fill-it" fill="none"
    style="stroke:currentColor;stroke-width:2px;stroke-linejoin:round;" />
  <path
    d="M85.18,54.53s-9.84-.34-18.26,5.7-11.73,13.19-12.58,20.72,0,43.79,0,43.79c0,0-.56,10.3,7.56,18.85,7.82,8.23,16.49,10.17,23.27,10.21,8.08.05,15.57-3.03,21.31-8,4.48-3.87,9.31-11.02,9.58-19.49.27-8.47,0-42.98,0-42.98,0,0,.12-8.15-4.61-15.06-4.35-6.36-10.66-13.23-26.28-13.74Z"
    class="fill-it" fill="none"
    style="stroke:currentColor;stroke-width:2px;stroke-miterlimit:10;" />
  <path
    d="M85.18,54.53s-9.84-.34-18.26,5.7c-8.42,6.04-11.73,13.19-12.58,20.72s0,43.79,0,43.79c0,0-.56,10.3,7.57,18.85s16.49,10.17,23.27,10.21c8.09.05,15.57-3.03,21.31-8,4.48-3.87,9.31-11.02,9.58-19.49.27-8.47,0-42.98,0-42.98,0,0,.12-8.15-4.61-15.06-4.35-6.36-10.66-13.23-26.28-13.74Z"
    style="fill:none;stroke:currentColor;stroke-width:2px;stroke-miterlimit:10;" />
  <circle
    cx="85.07" cy="123.7" r="21.41"
    class="fill-it" fill="none" />
  <circle
    cx="85.08" cy="123.7" r="21.79"
    style="fill:none;stroke:currentColor;stroke-width:2px;stroke-miterlimit:10;" />
  <path
    d="M47.38,174.9c0-5.44-.18-86.62,1.33-96.65s5.59-15.19,10.12-19.6c6.43-6.01,15.26-10.26,27.11-10.26,10.37,0,19.9,3.62,27.38,9.66l-3.6,4.2c-6.33-5.84-14.99-9.61-24.28-9.61-16.97,0-31.79,11.94-32.96,27.8s-1.1,94.46-1.1,94.46h-4.01Z"
    class="fill-it" fill="none" />
  <path
    d="M51.39,174.9s-.07-78.59,1.1-94.46,15.99-27.8,32.96-27.8c9.29,0,17.95,3.77,24.28,9.61"
    style="fill:none;stroke:currentColor;stroke-miterlimit:10;" />
  <path
    d="M47.38,174.9c0-5.44-.18-86.62,1.33-96.65s5.59-15.19,10.12-19.6c6.43-6.01,15.26-10.26,27.11-10.26,10.37,0,19.9,3.62,27.38,9.66"
    style="fill:none;stroke:currentColor;stroke-miterlimit:10;" />
  <path
    d="M133.84,97.64h.95s.72-6.65-3.08-18.58-17.6-21.78-17.6-21.78l-4.99,5.4s5.23,5.52,8.28,11.22,3.22,6.51,3.5,7.91c.38,2.29-1.64,4.54-1.93,7.15s-.18,8.68-.18,8.68h.89v3.22h-1.03v8.64h16.02v-8.64h-.82v-3.22Z"
    class="fill-it" fill="none" />
  <path
    d="M114.1,57.27l-4.99,5.4s5.23,5.52,8.28,11.22,3.22,6.51,3.5,7.91c.38,2.29-1.64,4.54-1.93,7.15s-.18,8.68-.18,8.68h16.01s.72-6.65-3.08-18.58-17.6-21.78-17.6-21.78Z"
    style="fill:none;stroke:currentColor;stroke-width:2px;stroke-linejoin:round;" />
  <rect
    x="118.63" y="100.86" width="16.02" height="8.64"
    style="fill:none;stroke:currentColor;stroke-width:2px;stroke-linejoin:round;" />
  <line
    x1="118.79" y1="92.18" x2="133.76" y2="86.85"
    style="fill:none;stroke:currentColor;stroke-width:0.25px;stroke-miterlimit:10;" />
  <line
    x1="118.79" y1="94.86" x2="134.49" y2="91.15"
    style="fill:none;stroke:currentColor;stroke-width:0.25px;stroke-miterlimit:10;" />
  <line
    x1="112.94" y1="67.19" x2="118.74" y2="61.08"
    style="fill:none;stroke:currentColor;stroke-width:0.25px;stroke-miterlimit:10;" />
  <line
    x1="111.7" y1="65.63" x2="117.33" y2="59.84"
    style="fill:none;stroke:currentColor;stroke-width:0.25px;stroke-miterlimit:10;" />
  <line
    x1="110.54" y1="64.26" x2="115.84" y2="58.61"
    style="fill:none;stroke:currentColor;stroke-width:0.25px;stroke-miterlimit:10;" />
  <line
    x1="119.67" y1="97.64" x2="119.67" y2="100.86"
    style="fill:none;stroke:currentColor;stroke-miterlimit:10;" />
  <line
    x1="133.84" y1="97.64" x2="133.84" y2="100.86"
    style="fill:none;stroke:currentColor;stroke-miterlimit:10;" />
</g>
</svg>